<svg xmlns="http://www.w3.org/2000/svg" viewBox="0 0 1200 720" role="img" aria-labelledby="title desc">
  <title id="title">TableSpark interface preview</title>
  <desc id="desc">Illustrated preview of the TableSpark multiplication table generator.</desc>
  <rect width="1200" height="720" rx="28" fill="#f6f7fb"/>
  <rect x="32" y="28" width="1136" height="76" rx="18" fill="#fff" stroke="#dfe2ec"/>
  <rect x="56" y="45" width="42" height="42" rx="12" fill="#5b5bd6"/>
  <path d="M67 56l20 20m0-20L67 76" stroke="#fff" stroke-width="6" stroke-linecap="round"/>
  <text x="114" y="64" font-family="system-ui,sans-serif" font-size="22" font-weight="700" fill="#181a25">TableSpark</text>
  <text x="114" y="84" font-family="system-ui,sans-serif" font-size="13" fill="#666b7d">Build multiplication fluency with focused practice.</text>
  <rect x="32" y="120" width="1136" height="52" rx="16" fill="#fff" stroke="#dfe2ec"/>
  <rect x="50" y="130" width="92" height="32" rx="16" fill="#5b5bd6"/>
  <text x="72" y="151" font-family="system-ui,sans-serif" font-size="13" font-weight="700" fill="#fff">Tables</text>
  <text x="174" y="151" font-family="system-ui,sans-serif" font-size="13" font-weight="700" fill="#666b7d">Practice</text>
  <text x="270" y="151" font-family="system-ui,sans-serif" font-size="13" font-weight="700" fill="#666b7d">Progress</text>
  <text x="366" y="151" font-family="system-ui,sans-serif" font-size="13" font-weight="700" fill="#666b7d">Settings</text>
  <rect x="52" y="205" width="1096" height="142" rx="24" fill="#fff" stroke="#dfe2ec"/>
  <text x="82" y="240" font-family="system-ui,sans-serif" font-size="13" font-weight="800" fill="#4545b5">GENERATE · LEARN · PRINT</text>
  <text x="82" y="286" font-family="system-ui,sans-serif" font-size="38" font-weight="800" fill="#181a25">Multiplication tables</text>
  <text x="82" y="318" font-family="system-ui,sans-serif" font-size="16" fill="#666b7d">Custom ranges, practice drills, mastery tracking, and print-ready worksheets.</text>
  <g font-family="system-ui,sans-serif" font-size="20" font-weight="700" fill="#181a25">
    <rect x="52" y="378" width="255" height="92" rx="18" fill="#fff" stroke="#dfe2ec"/><text x="84" y="433">2 × 7 = 14</text>
    <rect x="326" y="378" width="255" height="92" rx="18" fill="#fff" stroke="#dfe2ec"/><text x="358" y="433">3 × 7 = 21</text>
    <rect x="600" y="378" width="255" height="92" rx="18" fill="#fff" stroke="#dfe2ec"/><text x="632" y="433">4 × 7 = 28</text>
    <rect x="874" y="378" width="274" height="92" rx="18" fill="#fff" stroke="#dfe2ec"/><text x="906" y="433">5 × 7 = 35</text>
    <rect x="52" y="488" width="255" height="92" rx="18" fill="#fff" stroke="#dfe2ec"/><text x="84" y="543">6 × 7 = 42</text>
    <rect x="326" y="488" width="255" height="92" rx="18" fill="#fff" stroke="#dfe2ec"/><text x="358" y="543">7 × 7 = 49</text>
    <rect x="600" y="488" width="255" height="92" rx="18" fill="#fff" stroke="#dfe2ec"/><text x="632" y="543">8 × 7 = 56</text>
    <rect x="874" y="488" width="274" height="92" rx="18" fill="#fff" stroke="#dfe2ec"/><text x="906" y="543">9 × 7 = 63</text>
  </g>
  <text x="52" y="666" font-family="system-ui,sans-serif" font-size="14" fill="#666b7d">Interface preview illustration · Made by the Sanskar</text>
</svg>
